<?xml version="1.0" encoding="UTF-8" standalone="no"?><svg xmlns:svg="http://www.w3.org/2000/svg" xmlns="http://www.w3.org/2000/svg" version="1.1" style="overflow:visible" viewBox="-250 -250 500 500" height="2000px" width="2000px"><rect fill-opacity="0" fill="rgb(0,0,0)" height="500" width="500" y="-250" x="-250" /><svg version="1.1" y="-250" x="-250" viewBox="-250 -250 500 500" height="500px" width="500px" style="overflow:visible"><g transform="rotate(0,0,0)" stroke-linejoin="round" fill="#fff"><path stroke-linecap="butt" stroke-linejoin="round" stroke="none" fill="rgb(255,255,255)" d="m-129.233 1.609c-9.20215 35.996-13.1973 71.6185 0 105.998c34.4095 14.2287 79.6474 22.8831 129.235998 22.8831c49.5891-0.00007 94.8269-8.65492 129.235998-22.8831c17.4373-34.4052 13.0344-69.9728 0-105.998z" /><path stroke-linecap="butt" stroke-linejoin="round" stroke="none" fill="rgb(255,255,255)" d="m129.233 1.609v105.998c40.323-16.6726 65.7672-41.0065 65.7654-68.1238v-37.8742z" /><path stroke-linecap="butt" stroke-linejoin="round" stroke="none" fill="rgb(238,238,238)" d="m-129.233 1.609v105.998c-40.323-16.6772-65.7672-41.0065-65.7672-68.1183v-37.8742h65.7654z" /><path stroke-linecap="butt" stroke-linejoin="round" stroke-width="12" stroke-opacity="1" stroke="rgb(38,38,38)" fill="none" d="m-195 1.609v37.876c-0.002 50.2604 87.3024 91.005 195 91.005c107.699-0.00018 195-40.7447 195-91.005v-37.876z" /><path stroke-linecap="butt" stroke-linejoin="round" stroke="none" fill="rgb(102,102,102)" d="m-129.233-37.878c-2.62054 35.1576-19.0669 69.3851 0 106.002c34.4095 14.2285 79.6474 22.8794 129.235998 22.8794c49.5891-0.00007 94.8269-8.65144 129.235998-22.8794c16.3104-34.3649 10.8366-70.024 0-106.002z" /><path stroke-linecap="butt" stroke-linejoin="round" stroke="none" fill="rgb(85,85,85)" d="m-129.233-37.878v106.002c-40.323-16.6589-65.7672-41.0065-65.7672-68.1183v-37.8742h65.7654z" /><path stroke-linecap="butt" stroke-linejoin="round" stroke="none" fill="rgb(136,136,136)" d="m129.233-37.878v106.002c40.323-16.6726 65.7672-41.0101 65.7654-68.1275v-37.8742z" /><path stroke-linecap="butt" stroke-linejoin="round" stroke-width="12" stroke-opacity="1" stroke="rgb(38,38,38)" fill="none" d="m-195-37.878v37.876c-0.002 50.2604 87.3024 91.005 195 91.005c107.699-0.00016 195-40.7447 195-91.005v-37.876z" /><path stroke-linecap="butt" stroke-linejoin="round" stroke="none" fill="rgb(102,102,102)" d="m0-130.490001c-85.4738 0.00017-160.984 25.9769-186.265 64.079899c75.8742 0.54885 135.344-28.2231 190.904-63.9719c-1.54465-0.0443-3.09028-0.0802-4.63686-0.10727z" /><path stroke-linecap="butt" stroke-linejoin="round" stroke="none" fill="rgb(102,102,102)" d="m88.800999-120.403c-107.4 9.74617-205.874 34.083-280.34 97.707c17.3003 43.011 97.7519 74.1851 191.52 74.2125c107.696-0.00018 195-40.7447 195-91.0032c-0.0797-34.1306-41.0787-65.3724-106.192-80.9164z" /><path stroke-linecap="butt" stroke-linejoin="round" stroke="none" fill="rgb(136,136,136)" d="m154.041999-10.48a5.49311 5.52757 0 0 0-3.41491 1.18024c-34.2773 26.327-108.526 42.9854-183.36 36.6091a5.49311 5.52757 0 1 0-0.92615 11.0144c76.9911 6.55854 152.534-9.32204 190.958-38.8365a5.49311 5.52757 0 0 0-3.2505-9.96741z" /><path stroke-linecap="butt" stroke-linejoin="round" stroke="none" fill="rgb(136,136,136)" d="m4.639-130.38l-190.904 63.9628a195 91.0014 0 0 0-8.73513 26.9288a195 91.0014 0 0 0 3.47956 16.787l280.322-97.7015a195 91.0014 0 0 0-84.1617-9.97702z" /><path stroke-linecap="butt" stroke-linejoin="round" stroke-width="12" stroke-opacity="1" stroke="rgb(38,38,38)" fill="none" d="m195-39.489001a195 91.0014 0 0 1-195 91.0014a195 91.0014 0 0 1-195-91.0014a195 91.0014 0 0 1 195-91.0014a195 91.0014 0 0 1 195 91.0014z" /></g></svg></svg>